<?xml version="1.0" encoding="UTF-8" standalone="no"?>
<svg
   xmlns:dc="http://purl.org/dc/elements/1.1/"
   xmlns:cc="http://creativecommons.org/ns#"
   xmlns:rdf="http://www.w3.org/1999/02/22-rdf-syntax-ns#"
   xmlns:svg="http://www.w3.org/2000/svg"
   xmlns="http://www.w3.org/2000/svg"
   xmlns:sodipodi="http://sodipodi.sourceforge.net/DTD/sodipodi-0.dtd"
   xmlns:inkscape="http://www.inkscape.org/namespaces/inkscape"
   width="331.76468mm"
   height="59.579666mm"
   viewBox="0 0 331.76468 59.579666"
   version="1.1"
   id="svg8"
   inkscape:version="1.0.1 (c497b03c, 2020-09-10)"
   sodipodi:docname="intro.svg">
  <defs
     id="defs2" />
  <sodipodi:namedview
     id="base"
     pagecolor="#ffffff"
     bordercolor="#666666"
     borderopacity="1.0"
     inkscape:pageopacity="0.0"
     inkscape:pageshadow="2"
     inkscape:zoom="0.48506725"
     inkscape:cx="357.194"
     inkscape:cy="312.86228"
     inkscape:document-units="mm"
     inkscape:current-layer="g73"
     inkscape:document-rotation="0"
     showgrid="false"
     inkscape:snap-text-baseline="true"
     inkscape:window-width="1252"
     inkscape:window-height="811"
     inkscape:window-x="0"
     inkscape:window-y="23"
     inkscape:window-maximized="0"
     inkscape:pagecheckerboard="true"
     borderlayer="false"
     inkscape:showpageshadow="false" />
  <metadata
     id="metadata5">
    <rdf:RDF>
      <cc:Work
         rdf:about="">
        <dc:format>image/svg+xml</dc:format>
        <dc:type
           rdf:resource="http://purl.org/dc/dcmitype/StillImage" />
        <dc:title />
      </cc:Work>
    </rdf:RDF>
  </metadata>
  <g
     inkscape:label="Layer 1"
     inkscape:groupmode="layer"
     id="layer1"
     transform="translate(15.338327,-7.5924255)">
    <text
       xml:space="preserve"
       style="font-style:normal;font-weight:normal;font-size:10.5833px;line-height:1.25;font-family:sans-serif;fill:#000000;fill-opacity:1;stroke:none;stroke-width:0.264583"
       x="-17.074656"
       y="42.415501"
       id="text835"><tspan
         sodipodi:role="line"
         x="-17.074656"
         y="42.415501"
         style="font-style:normal;font-variant:normal;font-weight:normal;font-stretch:normal;font-size:25.4px;font-family:'SF Pro Display';-inkscape-font-specification:'SF Pro Display, Normal ';font-variant-ligatures:normal;font-variant-caps:normal;font-variant-numeric:normal;font-variant-east-asian:normal;fill:#808080;stroke-width:0.264583"
         id="tspan837">Hi there!</tspan></text>
    <text
       xml:space="preserve"
       style="font-style:normal;font-weight:normal;font-size:10.5833px;line-height:1.25;font-family:sans-serif;fill:#000000;fill-opacity:1;stroke:none;stroke-width:0.264583"
       x="-16.792713"
       y="63.302555"
       id="text24"><tspan
         sodipodi:role="line"
         id="tspan22"
         x="-16.792713"
         y="63.302555"
         style="font-style:normal;font-variant:normal;font-weight:normal;font-stretch:normal;font-size:22.5778px;font-family:'SF Pro Display';-inkscape-font-specification:'SF Pro Display, Normal';font-variant-ligatures:normal;font-variant-caps:normal;font-variant-numeric:normal;font-variant-east-asian:normal;stroke-width:0.264583"><tspan
   style="fill:#999999"
   id="tspan28">I am</tspan> <tspan
   style="font-style:normal;font-variant:normal;font-weight:500;font-stretch:normal;font-size:22.5778px;font-family:'SF Pro Display';-inkscape-font-specification:'SF Pro Display, Medium';font-variant-ligatures:normal;font-variant-caps:normal;font-variant-numeric:normal;font-variant-east-asian:normal;fill:#333333"
   id="tspan26">Sayan Goswami</tspan></tspan></text>
    <g
       id="g73"
       transform="matrix(1.0332933,0,0,1.0332933,246.07286,-0.82487573)">
      <g
         id="color">
        <path
           fill="#92d3f5"
           d="m 17.2831,58.8244 c 0,0 -2,-13.5 10,-13.5 3.1918,2.1279 5.9264,3.5984 9,3.5921 h -0.125 c 3.0736,0.0063 4.7081,-2.1642 7.9,-4.2921 15.5705,-1e-4 11.5,14.2 11.5,14.2"
           id="path10" />
        <polygon
           fill="#ffffff"
           points="32.2983,51.5662 29.0593,47.6344 35.5372,47.6344 42.0152,47.6344 38.7762,51.5662 35.5372,55.498 "
           id="polygon12" />
        <path
           fill="#61b2e4"
           d="m 26.5302,44.9199 c 0,0 -5.9003,4.0266 -2.161,7.4669 h 4.5729 l -0.8335,3.7419 7.8919,1.9525 0.2903,-2.5055 -8.3606,-10.3636"
           id="path14" />
        <polygon
           fill="#d0cfce"
           points="60.1367,59.7725 35.1467,59.7725 42.0967,43.4225 67.0867,43.4225 "
           id="polygon16" />
        <polygon
           fill="#9b9b9a"
           points="60.3533,59.7725 60.1333,59.7725 51.3633,59.7725 58.3133,43.4225 67.0833,43.4225 67.3033,43.4225 "
           id="polygon18" />
      </g>
      <g
         id="hair"
         style="stroke-width:0.99971615;stroke-miterlimit:4;stroke-dasharray:none;opacity:1;fill:#000000;fill-opacity:1">
        <path
           fill="#6a462f"
           d="m 47.6758,18.0722 c 0.9033,3.0115 1.8166,6.9707 -0.4869,8.4539 0,0 -1.298,-5.192 -2.9696,-6.1236"
           id="path21"
           style="stroke-width:0.99971615;stroke-miterlimit:4;stroke-dasharray:none;fill:#000000;fill-opacity:1" />
        <path
           fill="#6a462f"
           d="m 28.0616,19.9722 c 5.5098,2.6849 12.7749,2.1946 16.8577,-0.0697 0.8067,-0.4474 1.5281,-1.0031 2.1418,-1.6716 2.9159,-3.1771 0.2257,-6.3452 0.2257,-6.3452 l -2.6305,2.0302 c -8.8352,-8.8352 -18.672,-3.5868 -18.0093,1.433 0,0 -6.945,3.6233 -2.1353,11.4635 z"
           id="path23"
           style="stroke-width:0.99971615;stroke-miterlimit:4;stroke-dasharray:none;fill:#000000;fill-opacity:1" />
      </g>
      <g
         id="skin"
         transform="translate(0,0.1152)">
        <path
           fill="#c19a65"
           d="m 44.9193,19.9025 c -4.0828,2.2643 -11.3479,2.7546 -16.8577,0.0697 l -3.5499,6.8402 c -0.0712,-0.116 -0.1313,-0.2279 -0.1974,-0.342 -0.015,0.2981 -0.0363,0.5942 -0.0363,0.897 0,7.8277 5.0765,14.1733 11.3386,14.1733 6.2621,0 11.3386,-6.3456 11.3386,-14.1733 0,-2.8104 -0.6627,-5.4227 -1.7914,-7.626 -0.0841,0.0503 -0.1582,0.1132 -0.2445,0.1611 z"
           id="path26" />
      </g>
      <g
         id="skin-shadow" />
      <path
         d="m 16.917,58.9189 c -0.4844,10e-4 -0.9102,-0.3525 -0.9863,-0.8466 -0.0411,-0.2696 -0.9727,-6.6328 2.581,-10.7754 1.9229,-2.2412 4.751,-3.377 8.4072,-3.377 0.1973,0 0.3907,0.0586 0.5547,0.168 3.1631,2.1084 5.6758,3.418 8.4053,3.4238 h 0.04 c 0.5518,0 0.9991,0.4473 1,0.999 10e-4,0.5518 -0.4462,1 -0.998,1.001 -0.001,0 -0.001,0 -0.002,0 H 35.916 c -0.0107,-10e-4 -0.0254,-10e-4 -0.0381,0 h -0.084 c -0.0146,0 -0.0302,0 -0.0449,-10e-4 -3.0986,-0.0419 -5.8164,-1.4023 -9.1269,-3.5878 -2.8965,0.0566 -5.1104,0.9541 -6.586,2.6689 -2.956,3.4365 -2.1377,9.1201 -2.1289,9.1777 0.083,0.545 -0.292,1.0547 -0.8379,1.1387 -0.0507,0.0078 -0.1015,0.0107 -0.1523,0.0107 z"
         id="path30" />
      <path
         d="m 33.9961,55.2832 c -0.294,0 -0.584,-0.1279 -0.7813,-0.375 l -7.2646,-9.0713 c -0.3457,-0.4306 -0.2764,-1.0605 0.1553,-1.4053 0.4326,-0.3486 1.0615,-0.2753 1.4052,0.1553 l 7.2647,9.0713 c 0.3457,0.4307 0.2764,1.0606 -0.1553,1.4053 -0.1846,0.1484 -0.4053,0.2197 -0.624,0.2197 z"
         id="path32" />
      <path
         d="m 33.0068,57.3555 c -0.0742,0 -0.1494,-0.0078 -0.2255,-0.0254 l -4.8975,-1.127 c -0.2686,-0.0615 -0.499,-0.2314 -0.6387,-0.4697 -0.1387,-0.2373 -0.1738,-0.5225 -0.0967,-0.7861 l 0.458,-1.5606 h -3.2373 c -0.2509,0 -0.4921,-0.0947 -0.6767,-0.2637 -1.4043,-1.2919 -1.6201,-2.6455 -1.5537,-3.5546 0.2129,-2.9268 3.459,-5.2227 3.8281,-5.4746 0.4551,-0.3116 1.0762,-0.1934 1.3877,0.2617 0.3115,0.455 0.1953,1.0771 -0.2598,1.3896 -0.7832,0.5381 -2.8427,2.3008 -2.9619,3.9717 -0.042,0.5918 0.1709,1.1406 0.6504,1.6699 h 4.1592 c 0.3154,0 0.6113,0.1485 0.8008,0.4004 0.1884,0.2529 0.247,0.5791 0.1591,0.8809 l -0.5351,1.8242 3.8633,0.8887 c 0.5381,0.124 0.874,0.6601 0.75,1.1992 -0.1065,0.4619 -0.5186,0.7754 -0.9737,0.7754 z"
         id="path34" />
      <polygon
         fill="none"
         stroke="#000000"
         stroke-linecap="round"
         stroke-linejoin="round"
         stroke-miterlimit="10"
         stroke-width="2"
         points="42.0967,43.4225 35.1467,59.7725 60.1367,59.7725 67.0867,43.4225 "
         id="polygon36" />
      <line
         x1="24.176701"
         x2="35.146702"
         y1="59.772499"
         y2="59.772499"
         fill="none"
         stroke="#000000"
         stroke-linecap="round"
         stroke-linejoin="round"
         stroke-miterlimit="10"
         stroke-width="2"
         id="line38" />
      <path
         d="m 41.9729,27.0429 c 0,1.1045 -0.8965,2 -2,2 -1.1035,0 -2,-0.8955 -2,-2 0,-1.1035 0.8965,-2 2,-2 1.1035,0 2,0.8965 2,2"
         id="path40" />
      <path
         d="m 33.9729,27.0429 c 0,1.1045 -0.8965,2 -2,2 -1.1035,0 -2,-0.8955 -2,-2 0,-1.1035 0.8965,-2 2,-2 1.1035,0 2,0.8965 2,2"
         id="path42" />
      <path
         d="m 35.9727,37.0453 c -1.1518,0 -2.3037,-0.2861 -3.4472,-0.8579 -0.4942,-0.2471 -0.6944,-0.8477 -0.4473,-1.3418 0.2466,-0.4937 0.8462,-0.6943 1.3418,-0.4473 1.7178,0.8594 3.3877,0.8594 5.1055,0 0.4946,-0.247 1.0947,-0.0464 1.3418,0.4473 0.2471,0.4941 0.0469,1.0947 -0.4473,1.3418 -1.1435,0.5718 -2.2954,0.8579 -3.4473,0.8579 z"
         id="path44" />
      <path
         d="m 35.8506,43.5771 c -6.8037,0 -12.3389,-6.8066 -12.3389,-15.1733 0,-0.667 0.0352,-1.3345 0.1045,-1.9839 0.0576,-0.5488 0.5586,-0.9477 1.0996,-0.8882 0.5498,0.0581 0.9473,0.5508 0.8887,1.1001 -0.0615,0.5796 -0.0928,1.1758 -0.0928,1.772 0,7.2642 4.6377,13.1733 10.3389,13.1733 5.7002,0 10.3379,-5.9091 10.3379,-13.1733 0,-0.5874 -0.0303,-1.1807 -0.0918,-1.7637 -0.0567,-0.5493 0.3428,-1.041 0.8916,-1.0981 0.5527,-0.061 1.041,0.3423 1.0986,0.8911 0.0674,0.6519 0.1016,1.3145 0.1016,1.9707 0,8.3667 -5.5352,15.1733 -12.3379,15.1733 z"
         id="path46" />
      <path
         fill="none"
         stroke="#000000"
         stroke-linecap="round"
         stroke-linejoin="round"
         stroke-miterlimit="10"
         stroke-width="2"
         d="M 34.0178,18.9722"
         id="path50" />
      <path
         d="m 47.1885,27.5259 c -0.124,0 -0.249,-0.0235 -0.3682,-0.0703 -0.2998,-0.1187 -0.5234,-0.3745 -0.6015,-0.687 -0.5752,-2.2959 -1.6895,-5.0489 -2.4864,-5.4927 -0.4824,-0.2691 -0.6553,-0.878 -0.3857,-1.3604 0.2685,-0.4824 0.8769,-0.6567 1.3603,-0.3867 1.2647,0.7051 2.2422,2.9419 2.8369,4.6831 0.3282,-1.6045 -0.2646,-3.9809 -0.8261,-5.8525 -0.1582,-0.5288 0.1416,-1.0865 0.6709,-1.2451 0.5302,-0.1582 1.0869,0.142 1.2451,0.6709 0.6767,2.2568 2.2627,7.5429 -0.9043,9.5815 -0.1631,0.1055 -0.3516,0.1592 -0.541,0.1592 z"
         id="path52" />
      <path
         d="m 24.5117,27.8125 c -0.3467,0 -0.6699,-0.1802 -0.8525,-0.4771 -1.7031,-2.7768 -2.2315,-5.3974 -1.5694,-7.789 0.7041,-2.5474 2.5743,-4.0908 3.5264,-4.7349 0.0234,-2.1943 1.5703,-4.3305 4.1006,-5.5786 3.6406,-1.7964 9.4297,-1.8003 15.0107,3.3648 l 1.9483,-1.5035 c 0.4248,-0.3266 1.0293,-0.2612 1.374,0.1446 1.127,1.3281 2.5264,4.6406 -0.251,7.6684 -0.6748,0.7334 -1.4804,1.3623 -2.3945,1.8697 -3.8799,2.1523 -10.9658,2.9814 -16.8916,0.4965 l -3.1133,5.9995 c -0.166,0.3204 -0.4912,0.5259 -0.8515,0.5391 -0.0127,5e-4 -0.0245,5e-4 -0.0362,5e-4 z M 34.5264,10.1479 c -1.4903,0 -2.8282,0.3379 -3.9248,0.8785 -2.0049,0.9897 -3.168,2.6347 -2.9629,4.1919 0.0556,0.4165 -0.1563,0.8232 -0.5283,1.0175 -0.0206,0.0108 -2.4004,1.3008 -3.0987,3.8643 -0.3769,1.3818 -0.2099,2.9072 0.4951,4.5508 l 2.667,-5.1392 c 0.25,-0.4804 0.835,-0.6763 1.3262,-0.4385 5.2793,2.5743 12.249,1.9981 15.9336,-0.0454 0.7275,-0.4028 1.3633,-0.8989 1.8916,-1.4736 1.5156,-1.6523 1.1514,-3.2715 0.7061,-4.2075 l -1.7637,1.3608 c -0.3985,0.3062 -0.961,0.271 -1.3184,-0.0845 -3.2812,-3.2817 -6.6211,-4.4751 -9.4228,-4.4751 z"
         id="path54" />
    </g>
  </g>
</svg>
